<svg width="422" height="154" viewBox="0 0 422 154" fill="none" xmlns="http://www.w3.org/2000/svg">
<path d="M161.2 126.3C159.9 125 158.2 124.3 156.3 124.3C155.5 124.3 154.7 124.5 154 124.9C153.3 125.3 152.8 125.7 152.4 126C152 126.4 151.6 126.9 151.1 127.6L150.9 127.9L151.1 114.7C149.7 115.3 147.7 115.7 145.1 115.8V116.1C147 116.2 147.9 116.5 147.9 117C148 119.9 148 123.7 148 128.2C148 133.1 148 137.3 147.9 140.7H148.4C148.6 140.7 148.7 140.7 148.9 140.7C149 140.6 149.2 140.2 149.5 139.6C149.9 138.9 150.2 138.4 150.6 138L150.7 137.9L150.8 138C152.6 139.9 154.3 140.9 155.8 140.9C157.7 140.9 159.4 140.1 160.8 138.6C162.2 137.1 163 135 163 132.5C163.1 129.7 162.5 127.6 161.2 126.3ZM158.3 137.5C157.5 138.9 156.3 139.6 155 139.6C154.2 139.6 153.4 139.4 152.8 139C152.2 138.6 151.8 138.2 151.5 137.8L151.1 137.2L151 132.3L151.3 128.6L151.7 127.8C152 127.3 152.5 126.8 153.1 126.2C153.8 125.7 154.5 125.4 155.2 125.4C156 125.4 156.8 125.6 157.4 126.1C158 126.6 158.4 127.2 158.7 127.9C159 128.6 159.2 129.4 159.3 130.1C159.4 130.8 159.5 131.6 159.5 132.4C159.6 134.4 159.2 136.1 158.3 137.5Z" fill="black"/>
<path d="M180.3 125V125.3C180.7 125.3 181 125.3 181.2 125.3C181.4 125.3 181.7 125.4 182.1 125.4C182.5 125.5 182.7 125.6 182.9 125.8C183.1 126 183.1 126.3 183.1 126.6C183.1 126.9 183 127.3 182.8 127.8L178.4 137.9L178.3 137.7L174.3 127.6C174.1 127.1 174.1 126.7 174.1 126.5C174.1 126 174.2 125.7 174.5 125.6C174.8 125.5 175.2 125.4 175.8 125.4V125.1C174.6 125.2 173.1 125.2 171.2 125.2C169.6 125.2 168.3 125.2 167.2 125.1V125.5C168.2 125.6 168.9 125.7 169.4 125.9C170.1 126.1 170.6 126.6 170.8 127.3L176.9 141.3C175.9 144.4 174.8 146.4 173.8 147.4C172.9 148.2 172.2 148.6 171.8 148.6C171 148.6 170.5 148.4 170.1 148.1L170 148L170.2 147.9C171.2 147.5 171.7 146.9 171.7 146C171.7 145.4 171.5 145 171 144.6C170.5 144.3 169.9 144.1 169.3 144.1C168.7 144.1 168.3 144.3 167.9 144.7C167.5 145.1 167.3 145.7 167.3 146.5C167.3 147.3 167.7 148 168.5 148.6C169.3 149.2 170.2 149.5 171 149.5H171.1C172.4 149.5 173.5 149.1 174.5 148.3C175.4 147.5 176.2 146.4 176.7 145L183.8 128.1C184.3 126.8 184.7 126.1 185.1 125.7C185.4 125.5 186 125.4 187 125.4V125.1C186.3 125.2 185.3 125.3 184 125.3C182.4 125.1 181.2 125.1 180.3 125Z" fill="black"/>
<path d="M206.2 132.1C206.2 138 209 141 214.4 141C217 141 219 140.1 220.4 138.4C221.7 136.7 222.4 134.5 222.4 132C222.4 129.9 221.6 128.1 220 126.5C218.4 124.9 216.4 124.1 214.1 124.1C212.1 124.1 210.2 124.9 208.6 126.4C207.1 127.9 206.2 129.8 206.2 132.1ZM209.9 130.1C210 129.3 210.3 128.4 210.6 127.5C210.9 126.6 211.4 125.9 212.1 125.4C212.8 124.9 213.6 124.6 214.5 124.6C215.9 124.6 217 125.4 217.9 127C218.7 128.5 219.2 130.4 219.2 132.4C219.2 134.9 218.8 136.8 218 138.1C217.2 139.4 216 140.1 214.6 140.1C213.1 140.1 211.9 139.4 211 138C210.2 136.6 209.7 134.8 209.7 132.6C209.7 131.9 209.8 131 209.9 130.1Z" fill="black"/>
<path d="M242.1 125.3C241.6 124.7 240.8 124.4 239.9 124.4C238.6 124.4 237.6 124.9 236.7 125.8C235.8 126.8 235.2 127.8 234.8 128.9L234.6 129.3L234.1 124.2C232.1 124.7 230.4 125 228.9 125L229 125.4C230.3 125.5 231.1 125.6 231.5 125.8V138.9C231.5 139.1 231.2 139.4 230.5 139.6C229.9 139.8 229.4 140 229 140V140.4C230.1 140.3 231.4 140.3 233 140.3C234.7 140.3 236.1 140.3 237.2 140.4V140C235.4 139.8 234.5 139.5 234.5 138.9L234.4 130.4L234.8 129.2C235.1 128.4 235.6 127.6 236.3 126.8C237 126 237.7 125.6 238.5 125.6C239 125.6 239.3 125.7 239.5 126C239.7 126.2 239.9 126.5 239.9 126.7V126.8H239.8C239.1 127.3 238.7 127.8 238.7 128.4C238.7 128.9 239 129.3 239.4 129.6C239.8 130 240.2 130.1 240.6 130.1C241.1 130.1 241.6 129.8 242.1 129.3C242.5 128.8 242.7 128.2 242.7 127.5C242.8 126.7 242.6 125.8 242.1 125.3Z" fill="black"/>
<path d="M256.8 140.099C255.4 140.099 254.4 139.299 253.7 137.799C253 136.299 252.6 134.499 252.6 132.599V131.599H252.7H263.3C263.3 131.199 263.3 130.899 263.3 130.699C263.3 130.199 263.2 129.699 263.1 129.099C262.7 127.399 262 126.199 260.8 125.499C259.6 124.699 258.3 124.399 256.9 124.399C256 124.399 255.1 124.499 254.2 124.799C253.3 125.099 252.5 125.499 251.6 126.099C250.8 126.699 250.1 127.599 249.6 128.699C249.1 129.899 248.8 131.199 248.8 132.699C248.8 135.299 249.5 137.299 251 138.699C252.5 140.099 254.3 140.799 256.5 140.799C258.3 140.799 259.8 140.299 260.9 139.399C262 138.499 262.7 137.599 263.1 136.599L262.2 135.899C261.8 136.799 261.2 137.799 260.4 138.599C259.6 139.699 258.4 140.099 256.8 140.099ZM252.7 131.099C252.8 129.199 253.1 127.699 253.7 126.599C254.3 125.499 255.1 124.899 256.1 124.899C257.1 124.899 257.9 125.199 258.6 125.699C259.3 126.199 259.7 126.999 259.9 127.799C260 128.299 260.1 128.999 260.1 129.799C260.1 130.199 260.1 130.599 260.1 131.099V131.199H260H252.8L252.7 131.099Z" fill="black"/>
<path d="M275.9 139.299C275.9 136.799 275.9 133.899 275.8 130.399C275.8 126.999 275.7 124.599 275.7 123.299C275.7 120.199 275.8 117.399 275.9 114.899C273.4 115.399 271.4 115.699 270 115.699V116.199C271.1 116.199 272 116.499 272.6 116.999C272.7 120.099 272.7 124.099 272.7 128.799C272.7 133.199 272.7 136.699 272.6 139.199C272.5 139.699 271.7 139.999 269.9 140.099V140.499C271.1 140.399 272.6 140.299 274.4 140.299C276 140.299 277.3 140.399 278.4 140.499V140.099C278 140.099 277.4 139.999 276.8 139.899C276.3 139.799 276 139.599 275.9 139.299Z" fill="black"/>
<path d="M119.8 0.59961C118.3 0.99961 117.2 2.09961 116.5 3.49961C112.8 10.9996 109.1 34.3996 107.5 55.9996C108.3 58.1996 110 59.9996 112.6 61.5996C110.7 60.8996 108.8 60.5996 107.1 60.6996C106.9 63.8996 106.7 66.9996 106.6 69.9996C106.6 70.3996 106.6 70.7996 106.6 71.2996C101.7 78.8996 91.9001 92.5996 83.1001 91.0996C72.8001 89.2996 74.3001 71.9996 74.3001 71.9996C74.3001 71.9996 87.2001 72.7996 96.0001 61.6996C97.3001 60.0996 98.2001 58.3996 98.7001 56.8996C97.8001 55.1996 96.3001 53.6996 94.1001 52.3996C95.9001 53.1996 97.6001 53.5996 99.2001 53.5996C99.4001 46.0996 91.6001 40.6996 84.9001 42.5996C77.9001 44.5996 69.2001 53.2996 65.5001 63.5996C65.3001 63.4996 65.0001 63.4996 64.6001 63.5996C60.4001 64.7996 59.8001 66.2996 59.0001 67.6996C56.4001 71.5996 55.5001 89.2996 41.3001 94.8996C30.8001 99.0996 24.0001 92.3996 24.0001 92.3996C11.3001 83.3996 13.5001 44.5996 32.9001 23.8996C41.5001 14.7996 48.0001 18.5996 48.8001 19.0996C50.6001 20.0996 54.2001 23.7996 54.9001 28.3996C55.2001 30.4996 56.3001 34.7996 60.1001 35.4996C62.0001 35.7996 62.7001 34.0996 63.0001 32.2996C63.3001 30.1996 63.0001 28.0996 62.2001 26.1996C59.7001 20.2996 52.0001 5.69962 37.1001 6.29961C32.1001 6.49961 27.5001 9.09961 23.4001 12.6996C26.0001 14.5996 29.4001 15.5996 33.6001 15.6996C24.6001 17.2996 19.8001 22.6996 19.1001 31.7996C18.5001 27.6996 17.2001 24.4996 15.0001 22.0996C13.6001 24.0996 12.3001 26.0996 11.1001 28.0996C6.20006 36.3996 2.60006 45.3996 1.10006 54.8996C-2.29994 75.2996 3.20006 91.5996 13.8001 97.0996C19.9001 100.3 26.8001 102.4 36.4001 100.7C42.1001 99.6996 47.6001 97.4996 52.5001 94.1996C58.7001 89.9996 62.4001 85.1996 64.6001 81.2996C66.7001 90.9996 73.2001 97.3996 86.1001 95.1996C95.7001 93.4996 102.6 85.2996 106.7 78.7996C106.7 88.1996 107.9 94.6996 108.8 96.3996C110.3 99.1996 114.8 99.5996 116.2 96.8996C117.6 94.0996 121.3 54.8996 121.3 54.8996C121.3 54.8996 124.2 25.1996 124.5 11.3996C124.5 10.7996 124.5 7.79961 124.5 6.99961C124.1 0.599612 121.7 -0.000389546 119.8 0.59961ZM60.4001 27.7996C60.6001 28.8996 61.2001 29.4996 62.2001 29.5996C61.1001 29.7996 60.5001 30.3996 60.4001 31.3996C60.2001 30.1996 59.5001 29.6996 58.6001 29.5996C59.6001 29.4996 60.2001 28.8996 60.4001 27.7996ZM58.6001 24.1996C58.7001 24.6996 59.0001 24.9996 59.5001 25.0996C59.0001 25.1996 58.7001 25.4996 58.6001 25.9996C58.5001 25.3996 58.2001 25.1996 57.7001 25.0996C58.2001 25.0996 58.5001 24.7996 58.6001 24.1996ZM56.8001 20.5996C56.9001 21.0996 57.2001 21.3996 57.6001 21.3996C57.1001 21.4996 56.8001 21.7996 56.8001 22.1996C56.7001 21.6996 56.4001 21.3996 56.0001 21.3996C56.5001 21.3996 56.8001 21.0996 56.8001 20.5996ZM39.6001 13.3996C39.7001 13.8996 40.0001 14.1996 40.4001 14.1996C39.9001 14.2996 39.6001 14.5996 39.6001 14.9996C39.5001 14.4996 39.2001 14.1996 38.8001 14.1996C39.3001 14.1996 39.5001 13.8996 39.6001 13.3996ZM36.1001 15.9996C36.2001 16.5996 36.6001 16.9996 37.2001 17.0996C36.5001 17.1996 36.2001 17.5996 36.1001 18.1996C36.0001 17.4996 35.6001 17.1996 35.0001 17.0996C35.6001 16.9996 36.0001 16.6996 36.1001 15.9996ZM32.2001 18.3996C32.3001 19.3996 32.9001 19.8996 33.9001 20.0996C32.9001 20.1996 32.4001 20.7996 32.2001 21.7996C32.0001 20.6996 31.4001 20.1996 30.5001 20.0996C31.5001 19.8996 32.1001 19.3996 32.2001 18.3996ZM28.1001 24.2996C28.2001 24.9996 28.6001 25.3996 29.3001 25.4996C28.6001 25.5996 28.2001 25.9996 28.1001 26.6996C28.0001 25.8996 27.5001 25.5996 26.9001 25.4996C27.6001 25.3996 28.0001 24.9996 28.1001 24.2996ZM26.3001 29.6996C25.2001 29.8996 24.6001 30.4996 24.5001 31.4996C24.3001 30.2996 23.6001 29.7996 22.7001 29.6996C23.7001 29.5996 24.4001 28.9996 24.5001 27.8996C24.6001 28.8996 25.2001 29.4996 26.3001 29.6996ZM23.3001 24.1996C23.4001 24.6996 23.7001 24.9996 24.2001 25.0996C23.6001 25.1996 23.4001 25.4996 23.3001 25.9996C23.2001 25.3996 22.9001 25.0996 22.4001 25.0996C22.9001 25.0996 23.2001 24.7996 23.3001 24.1996ZM16.2001 31.0996C16.7001 34.5996 18.7001 36.5996 22.1001 36.9996C18.5001 37.4996 16.6001 39.4996 16.2001 42.8996C15.6001 39.0996 13.4001 37.2996 10.3001 36.9996C13.6001 36.5996 15.7001 34.6996 16.2001 31.0996ZM10.7001 40.5996C10.8001 41.4996 11.3001 41.9996 12.2001 42.0996C11.3001 42.1996 10.8001 42.6996 10.7001 43.5996C10.5001 42.5996 10.0001 42.1996 9.20006 42.0996C10.1001 41.9996 10.6001 41.4996 10.7001 40.5996ZM8.10006 44.6996C8.20006 45.2996 8.60006 45.6996 9.20006 45.7996C8.60006 45.8996 8.20006 46.2996 8.10006 46.8996C8.00006 46.1996 7.60006 45.8996 7.00006 45.7996C7.60006 45.6996 8.00006 45.2996 8.10006 44.6996ZM7.30006 49.7996C7.40006 50.7996 8.00006 51.2996 9.00006 51.4996C8.00006 51.5996 7.50006 52.1996 7.30006 53.1996C7.10006 52.0996 6.50006 51.5996 5.60006 51.4996C6.60006 51.3996 7.20006 50.7996 7.30006 49.7996ZM4.70006 55.7996C4.70006 55.7996 7.90006 56.4996 7.70006 59.5996C7.30006 64.8996 5.60006 74.0996 12.2001 89.1996C12.2001 89.1996 1.40006 78.3996 4.70006 55.7996ZM12.2001 49.6996C12.0001 48.1996 11.1001 47.4996 9.90007 47.3996C11.2001 47.1996 12.0001 46.4996 12.2001 45.0996C12.4001 46.4996 13.2001 47.1996 14.5001 47.3996C13.1001 47.5996 12.4001 48.3996 12.2001 49.6996ZM14.8001 94.2996C14.8001 93.4996 14.4001 93.0996 13.6001 92.9996C14.3001 92.8996 14.8001 92.4996 14.9001 91.7996C14.9001 92.5996 15.4001 92.9996 16.1001 93.0996C15.3001 93.0996 14.9001 93.4996 14.8001 94.2996ZM64.4001 79.1996C64.3001 78.4996 63.9001 78.0996 63.3001 78.0996C63.9001 77.9996 64.3001 77.5996 64.4001 76.9996C64.5001 77.6996 64.9001 78.0996 65.5001 78.0996C64.8001 78.0996 64.5001 78.4996 64.4001 79.1996ZM89.4001 53.5996C87.6001 59.4996 79.6001 61.8996 79.6001 61.8996C81.9001 53.0996 91.2001 47.6996 89.4001 53.5996ZM78.4001 48.0996C78.5001 48.7996 78.9001 49.1996 79.5001 49.1996C78.8001 49.2996 78.4001 49.6996 78.4001 50.2996C78.3001 49.5996 77.9001 49.1996 77.3001 49.1996C77.9001 49.1996 78.3001 48.7996 78.4001 48.0996ZM77.5001 57.2996C76.5001 57.4996 75.9001 57.9996 75.8001 58.9996C75.6001 57.8996 75.0001 57.3996 74.1001 57.2996C75.1001 57.1996 75.7001 56.5996 75.8001 55.5996C75.9001 56.5996 76.5001 57.1996 77.5001 57.2996ZM74.6001 51.4996C74.7001 52.1996 75.1001 52.5996 75.7001 52.5996C75.0001 52.6996 74.6001 53.0996 74.6001 53.6996C74.5001 52.9996 74.1001 52.5996 73.5001 52.5996C74.1001 52.5996 74.5001 52.1996 74.6001 51.4996ZM71.6001 54.7996C71.7001 55.4996 72.1001 55.8996 72.7001 55.8996C72.0001 55.9996 71.6001 56.3996 71.6001 56.9996C71.5001 56.2996 71.1001 55.8996 70.5001 55.8996C71.2001 55.7996 71.5001 55.4996 71.6001 54.7996ZM67.2001 69.0996C67.3001 69.7996 67.7001 70.1996 68.3001 70.1996C67.6001 70.2996 67.2001 70.6996 67.2001 71.2996C67.1001 70.5996 66.7001 70.1996 66.1001 70.1996C66.7001 70.1996 67.1001 69.7996 67.2001 69.0996ZM67.2001 76.5996C67.0001 75.5996 66.5001 75.0996 65.6001 74.9996C66.5001 74.8996 67.0001 74.3996 67.2001 73.3996C67.3001 74.2996 67.9001 74.8996 68.8001 74.9996C67.9001 75.0996 67.4001 75.6996 67.2001 76.5996ZM70.6001 68.4996C70.5001 67.7996 70.1001 67.3996 69.5001 67.3996C70.2001 67.2996 70.5001 66.8996 70.6001 66.2996C70.7001 66.9996 71.1001 67.3996 71.7001 67.3996C71.0001 67.4996 70.6001 67.8996 70.6001 68.4996ZM72.6001 65.2996C72.3001 63.4996 71.3001 62.5996 69.7001 62.3996C71.3001 62.1996 72.3001 61.2996 72.6001 59.4996C72.8001 61.1996 73.8001 62.0996 75.5001 62.3996C73.8001 62.6996 72.9001 63.5996 72.6001 65.2996ZM108.6 69.6996C108.5 69.0996 108.1 68.7996 107.6 68.6996C108.2 68.5996 108.5 68.2996 108.6 67.6996C108.7 68.2996 109 68.5996 109.6 68.6996C109 68.6996 108.6 69.0996 108.6 69.6996ZM109.6 66.4996C109.5 65.8996 109.1 65.5996 108.6 65.4996C109.2 65.3996 109.5 65.0996 109.6 64.4996C109.7 65.0996 110 65.3996 110.6 65.4996C110 65.5996 109.7 65.8996 109.6 66.4996ZM110.6 55.7996C110.5 55.1996 110.1 54.8996 109.6 54.7996C110.2 54.6996 110.5 54.3996 110.6 53.7996C110.7 54.3996 111 54.6996 111.6 54.7996C111 54.7996 110.7 55.1996 110.6 55.7996ZM112.7 52.3996C112.5 51.0996 111.7 50.4996 110.7 50.3996C111.9 50.2996 112.6 49.5996 112.7 48.3996C112.9 49.5996 113.6 50.2996 114.7 50.3996C113.5 50.4996 112.8 51.1996 112.7 52.3996ZM114.3 47.1996C114.2 46.5996 113.8 46.2996 113.3 46.1996C113.9 46.0996 114.2 45.7996 114.3 45.1996C114.4 45.7996 114.7 46.0996 115.3 46.1996C114.7 46.2996 114.4 46.5996 114.3 47.1996ZM115.9 45.0996C115.8 44.3996 115.4 44.0996 114.9 44.0996C115.5 43.9996 115.8 43.6996 115.9 43.0996C116 43.6996 116.3 44.0996 116.9 44.0996C116.3 44.0996 116 44.4996 115.9 45.0996ZM117.7 41.9996C117.4 40.3996 116.5 39.5996 115.2 39.4996C116.6 39.2996 117.5 38.4996 117.7 36.9996C117.9 38.4996 118.8 39.2996 120.2 39.4996C118.7 39.7996 117.9 40.5996 117.7 41.9996ZM115.8 25.8996C116.4 25.7996 116.7 25.4996 116.8 24.8996C116.9 25.4996 117.2 25.8996 117.8 25.8996C117.2 25.9996 116.8 26.3996 116.8 26.8996C116.7 26.2996 116.3 25.9996 115.8 25.8996ZM119.6 35.6996C119.5 34.7996 119 34.3996 118.2 34.2996C119 34.1996 119.5 33.6996 119.6 32.8996C119.7 33.6996 120.2 34.1996 121 34.2996C120.1 34.3996 119.7 34.8996 119.6 35.6996ZM119.6 30.6996C119.5 29.7996 119 29.3996 118.2 29.2996C119 29.1996 119.5 28.6996 119.6 27.8996C119.7 28.6996 120.2 29.1996 121 29.2996C120.2 29.4996 119.8 29.8996 119.6 30.6996ZM119.5 24.5996C119.1 22.3996 117.9 21.3996 116.1 21.1996C118.1 20.8996 119.2 19.7996 119.5 17.7996C119.8 19.8996 121 20.9996 122.9 21.1996C120.9 21.4996 119.8 22.5996 119.5 24.5996ZM122.2 16.5996C122.1 15.9996 121.7 15.6996 121.2 15.5996C121.8 15.4996 122.1 15.1996 122.2 14.5996C122.3 15.1996 122.6 15.4996 123.2 15.5996C122.6 15.6996 122.3 16.0996 122.2 16.5996Z" fill="black"/>
<path d="M318.8 82.5995C318.4 81.1995 317.2 81.7995 316.4 82.7995C315.9 83.2995 311.8 88.9995 308.6 88.2995C307.2 87.9995 301.2 83.5995 301.3 69.5995C301.3 61.7995 302.9 51.5995 304.7 42.1995C305.5 42.1995 307.1 42.1995 309.1 41.8995C313.3 41.2995 319.5 39.6995 324.3 34.8995C324.5 34.6995 324.7 34.4995 324.8 34.2995C325.8 32.9995 329.5 28.5995 327.5 26.7995C326.5 25.8995 325.3 26.5995 323.6 27.6995C323 30.4995 321.5 34.6995 317.6 35.4995C317.6 35.4995 320 33.0995 320.7 29.3995C319.3 30.0995 317.7 30.6995 315.7 30.7995C314.8 30.7995 313.7 30.7995 312.4 30.7995C310.8 30.7995 309 30.6995 307.1 30.5995C308.8 23.0995 310.2 17.6995 310.3 16.7995C310.5 14.7995 308.3 10.3995 306.4 10.0995C306.4 10.0995 301.9 9.09951 298.9 17.4995C298.8 17.6995 298.7 18.0995 298.5 18.6995C299.9 20.0995 301.8 21.0995 304.4 21.3995C300.3 21.6995 297.4 23.3995 296 26.6995C295.7 27.5995 295.4 28.5995 295.1 29.5995C291.8 29.1995 289.2 28.8995 288.3 28.5995C286.5 27.9995 284.2 28.4995 282.8 28.8995C281.7 29.1995 280.7 29.7995 279.9 30.5995C279 31.5995 278 33.0995 278.1 35.1995C278.1 35.6995 278.4 36.1995 278.7 36.6995C279.2 37.2995 280 37.7995 280.9 38.2995C283.6 39.6995 287.9 40.6995 292 41.2995C291.7 42.4995 291.5 43.6995 291.3 44.6995C289.4 55.7995 289.3 71.5995 291.9 81.2995C289 84.4995 285.7 86.6995 285.6 86.6995C284.3 87.4995 282.9 87.4995 281.9 86.6995C276.9 82.4995 278.2 76.2995 280.2 67.3995C280.8 64.8995 281.4 62.0995 282 59.0995C282 59.0995 282.9 55.1995 281.7 53.7995C279.9 51.6995 279.3 51.9995 277.9 53.4995C277.7 53.7995 273.3 59.5995 273.1 59.8995C268.2 66.8995 264.1 73.1995 262.6 75.4995C262 76.4995 261.2 77.2995 260.4 77.9995C260 78.2995 259.5 78.6995 259 78.8995C257.5 79.6995 255.8 79.5995 254.8 76.7995C252.6 70.6995 253.4 57.3995 264.3 52.7995C267.5 51.3995 270.9 51.8995 270.9 51.8995C270.9 51.8995 275.3 52.3995 272.6 48.7995C272 47.9995 271 47.0995 269.7 46.3995C264.5 43.5995 254.5 43.2995 246.3 57.5995C246.1 53.0995 244.4 48.2995 241.2 46.9995C236.2 44.9995 228.9 44.8995 224.4 53.0995C223.2 53.0995 223.4 46.5995 221.8 44.0995C220.2 41.5995 216.1 39.9995 213.9 40.7995C211.7 41.5995 210.1 56.1995 210.1 56.1995C210.1 56.1995 209.9 57.6995 209.7 60.2995C209.2 55.8995 207.8 52.1995 205.4 50.1995C198.8 44.7995 192.2 47.4995 188.8 51.4995C185.4 55.4995 185.6 51.4995 185.6 51.4995C185.6 51.4995 187.4 30.2995 188.6 17.2995C188.6 16.7995 188.9 13.8995 188.9 13.0995C189 7.89951 186.7 6.99951 185.2 6.99951C182.9 6.99951 181.9 8.59951 180.8 10.9995C176.9 19.6995 173.2 43.8995 170.9 65.0995C170.7 66.4995 170.6 67.9995 170.5 69.2995C166 76.2995 155.5 92.2995 146 90.5995C135.7 88.7995 137.2 71.4995 137.2 71.4995C137.2 71.4995 150.1 72.2995 158.9 61.1995C167.7 50.0995 156.8 39.4995 147.8 42.0995C138.8 44.6995 126.9 58.3995 126.6 72.2995C126.3 86.1995 132.5 97.2995 148.8 94.4995C158.9 92.6995 166 83.7995 169.9 77.1995C169.6 84.3995 169.8 90.6995 170.5 92.0995C172.4 95.5995 175.9 94.2995 176.9 92.7995C179.1 89.2995 179.3 69.7995 188.6 58.2995C192.8 53.0995 204.8 42.0995 200.8 65.7995C197.2 87.4995 188.4 89.8995 185 89.2995C183.7 89.0995 182.3 89.2995 181.9 90.2995C181.4 91.4995 182.4 92.8995 186.6 93.6995C190.3 94.2995 201.5 93.6995 205.7 84.5995C207.6 80.3995 209 75.2995 209.6 70.1995C209.8 75.0995 210.4 80.7995 211.8 86.3995C212.1 87.3995 212.7 88.2995 213.6 88.8995C213.6 88.8995 220.1 94.1995 220.4 89.8995C220.7 85.5995 219.6 71.5995 224.3 60.9995C224.3 60.9995 230.1 48.8995 236.1 49.8995C241.3 50.7995 240.4 53.4995 239.2 56.8995C238.7 58.4995 238.1 60.1995 238.1 61.8995C238.1 65.8995 242.8 65.5995 242.8 65.5995C242.9 65.5995 243 65.5995 243.1 65.4995C242 70.9995 243 76.1995 245 80.1995C245.9 78.8995 246.5 77.0995 246.6 74.9995C246.9 80.3995 249.7 83.3995 255.1 83.8995C252.7 84.0995 250.8 84.8995 249.4 86.0995C251.5 87.9995 253.7 88.9995 255.7 88.9995C257.9 88.9995 260.1 87.8995 262.1 86.0995C264.7 83.7995 267.1 80.4995 269.1 77.1995C269.3 76.8995 269.5 76.5995 269.7 76.1995C269.7 76.1995 270.4 74.3995 270.4 78.3995C270.4 81.1995 271.4 83.7995 273 85.8995C274.3 87.6995 276.1 89.0995 278.1 90.0995C278.6 90.2995 279.1 90.4995 279.6 90.6995C282.3 91.3995 285.2 90.7995 287.6 89.4995C288.3 89.0995 289.1 88.5995 289.8 88.0995C291.3 87.0995 292.5 86.0995 293.6 85.1995C293.7 85.3995 293.8 85.5995 293.9 85.7995C296.4 90.0995 299 92.3995 301.7 93.3995C306.9 95.2995 312.1 91.9995 315.9 87.7995C316.3 87.3995 316.6 86.9995 316.9 86.5995C317.4 85.9995 317.8 85.2995 318.1 84.5995C318.2 84.3995 318.3 84.1995 318.3 83.9995C318.9 83.8995 319 83.1995 318.8 82.5995ZM152.4 53.5995C150.6 59.4995 142.6 61.8995 142.6 61.8995C145 53.0995 154.3 47.6995 152.4 53.5995ZM186.9 13.8995C187 14.4995 187.3 14.7995 187.9 14.8995C187.3 14.9995 187 15.2995 186.9 15.8995C186.8 15.2995 186.4 14.9995 185.9 14.8995C186.5 14.8995 186.8 14.4995 186.9 13.8995ZM183.4 19.0995C183.5 19.7995 183.9 20.0995 184.5 20.1995C183.8 20.2995 183.5 20.6995 183.4 21.2995C183.3 20.5995 182.9 20.2995 182.3 20.1995C182.9 20.0995 183.3 19.7995 183.4 19.0995ZM182.1 23.2995C182.2 23.8995 182.6 24.2995 183.2 24.3995C182.5 24.4995 182.2 24.8995 182.1 25.4995C182 24.7995 181.6 24.4995 181 24.3995C181.7 24.2995 182 23.9995 182.1 23.2995ZM179.2 33.5995C179.3 34.2995 179.7 34.5995 180.3 34.6995C179.6 34.7995 179.3 35.1995 179.2 35.7995C179.1 35.0995 178.7 34.7995 178.1 34.6995C178.7 34.5995 179.1 34.1995 179.2 33.5995ZM176 45.3995C176.1 45.8995 176.4 46.1995 176.8 46.1995C176.3 46.2995 176 46.5995 176 46.9995C175.9 46.3995 175.6 46.1995 175.2 46.1995C175.7 46.1995 176 45.8995 176 45.3995ZM173.5 64.9995C173.6 65.5995 173.9 65.8995 174.5 65.9995C173.9 66.0995 173.6 66.3995 173.5 66.9995C173.4 66.3995 173 66.0995 172.5 65.9995C173.1 65.8995 173.4 65.5995 173.5 64.9995ZM173.1 60.2995C173.5 60.1995 173.8 59.9995 173.9 59.4995C174 59.9995 174.2 60.1995 174.7 60.2995C174.2 60.3995 174 60.5995 173.9 61.0995C173.8 60.4995 173.5 60.2995 173.1 60.2995ZM173.1 79.6995C173 79.1995 172.7 78.9995 172.3 78.8995C172.7 78.7995 173 78.5995 173.1 78.0995C173.2 78.5995 173.4 78.7995 173.9 78.8995C173.4 78.9995 173.2 79.1995 173.1 79.6995ZM173.1 76.4995C173 75.9995 172.7 75.7995 172.3 75.6995C172.7 75.5995 173 75.3995 173.1 74.8995C173.2 75.3995 173.4 75.5995 173.9 75.6995C173.4 75.7995 173.2 76.0995 173.1 76.4995ZM173.1 73.2995C172.9 71.9995 172.2 71.4995 171.2 71.3995C172.3 71.2995 173 70.5995 173.1 69.4995C173.3 70.6995 173.9 71.2995 175 71.3995C173.9 71.5995 173.2 72.1995 173.1 73.2995ZM174.1 57.3995C174 56.7995 173.6 56.4995 173.1 56.3995C173.7 56.2995 174 55.9995 174.1 55.3995C174.2 55.9995 174.5 56.2995 175.1 56.3995C174.5 56.4995 174.2 56.8995 174.1 57.3995ZM175.3 52.5995C175.2 51.9995 174.8 51.6995 174.3 51.5995C174.9 51.4995 175.2 51.1995 175.3 50.5995C175.4 51.1995 175.7 51.4995 176.3 51.5995C175.7 51.6995 175.4 51.9995 175.3 52.5995ZM177.6 51.0995C177.4 50.0995 176.9 49.6995 176.1 49.5995C177 49.4995 177.5 48.9995 177.6 48.0995C177.7 48.9995 178.2 49.4995 179.1 49.5995C178.2 49.6995 177.7 50.1995 177.6 51.0995ZM179.8 39.4995C179.7 38.7995 179.3 38.4995 178.7 38.3995C179.3 38.2995 179.7 37.9995 179.8 37.2995C179.9 37.9995 180.3 38.2995 180.9 38.3995C180.3 38.4995 179.9 38.8995 179.8 39.4995ZM182.1 33.1995C181.8 31.2995 180.7 30.3995 179.1 30.1995C180.8 29.9995 181.8 28.9995 182.1 27.1995C182.4 28.9995 183.4 29.8995 185.1 30.1995C183.3 30.5995 182.3 31.5995 182.1 33.1995ZM184.7 18.5995C185.5 18.4995 186 17.9995 186.1 17.1995C186.2 17.9995 186.7 18.4995 187.5 18.5995C186.7 18.6995 186.2 19.1995 186.1 19.9995C185.9 19.0995 185.4 18.6995 184.7 18.5995ZM212.9 71.0995C212.8 70.4995 212.4 70.1995 211.9 70.0995C212.5 69.9995 212.8 69.6995 212.9 69.0995C213 69.6995 213.3 69.9995 213.9 70.0995C213.3 70.1995 212.9 70.4995 212.9 71.0995ZM209.9 69.8995C209.4 67.0995 207.8 65.7995 205.5 65.5995C208 65.2995 209.7 63.8995 210 61.2995C210.4 63.8995 211.6 65.2995 214.1 65.5995C211.6 65.8995 210.3 67.3995 209.9 69.8995ZM214.9 63.8995C214.7 62.5995 214 62.0995 213 61.9995C214.1 61.8995 214.8 61.1995 214.9 60.0995C215.1 61.2995 215.7 61.8995 216.8 61.9995C215.7 62.0995 215 62.7995 214.9 63.8995ZM216.3 58.5995C216.2 57.8995 215.8 57.5995 215.2 57.4995C215.8 57.3995 216.2 57.0995 216.3 56.3995C216.4 56.9995 216.8 57.3995 217.4 57.4995C216.7 57.5995 216.3 57.9995 216.3 58.5995ZM217.6 52.5995C217.4 51.6995 216.9 51.2995 216.2 51.1995C217 51.0995 217.5 50.5995 217.6 49.7995C217.7 50.5995 218.2 51.0995 219 51.1995C218.2 51.2995 217.7 51.7995 217.6 52.5995ZM218.9 55.8995C218.8 55.3995 218.5 55.1995 218.1 55.0995C218.5 54.9995 218.8 54.7995 218.9 54.2995C219 54.7995 219.2 54.9995 219.7 55.0995C219.2 55.1995 218.9 55.4995 218.9 55.8995ZM220.3 49.0995C220.2 48.4995 219.8 48.1995 219.3 48.0995C219.9 47.9995 220.2 47.6995 220.3 47.0995C220.4 47.6995 220.7 47.9995 221.3 48.0995C220.6 48.1995 220.3 48.4995 220.3 49.0995ZM253.7 52.9995C253.7 52.9995 256.3 47.8995 262.2 49.3995C262.2 49.3995 254.4 53.6995 253.6 56.7995C253.6 56.7995 252.4 55.0995 253.7 52.9995ZM273.5 78.6995C273.4 78.0995 273 77.7995 272.5 77.6995C273.1 77.5995 273.4 77.2995 273.5 76.6995C273.6 77.2995 273.9 77.5995 274.5 77.6995C273.9 77.7995 273.6 78.0995 273.5 78.6995ZM273.6 74.5995C273.4 73.3995 272.7 72.7995 271.7 72.6995C272.8 72.5995 273.4 71.9995 273.6 70.7995C273.8 71.8995 274.4 72.4995 275.5 72.6995C274.4 72.8995 273.8 73.5995 273.6 74.5995ZM275.2 69.0995C275 68.1995 274.5 67.7995 273.8 67.6995C274.6 67.5995 275.1 67.0995 275.2 66.2995C275.3 67.0995 275.8 67.5995 276.6 67.6995C275.8 67.7995 275.3 68.2995 275.2 69.0995ZM278 64.9995C277.9 64.4995 277.6 64.2995 277.2 64.1995C277.6 64.0995 277.9 63.8995 278 63.3995C278.1 63.8995 278.3 64.0995 278.8 64.1995C278.3 64.2995 278.1 64.5995 278 64.9995ZM306.9 20.1995C307 20.9995 307.5 21.4995 308.3 21.5995C307.5 21.6995 307 22.1995 306.9 22.9995C306.7 22.0995 306.3 21.6995 305.5 21.5995C306.4 21.4995 306.8 20.9995 306.9 20.1995ZM304.2 24.8995C304.4 26.2995 305.2 27.0995 306.6 27.2995C305.2 27.4995 304.4 28.2995 304.2 29.6995C303.9 28.1995 303.1 27.3995 301.8 27.2995C303.2 27.0995 304 26.2995 304.2 24.8995ZM299 28.4995C299.1 29.2995 299.6 29.7995 300.4 29.8995C299.6 29.9995 299.1 30.4995 299 31.2995C298.8 30.3995 298.3 29.9995 297.6 29.8995C298.4 29.7995 298.8 29.2995 299 28.4995ZM296.5 32.1995C296.6 32.7995 296.9 33.0995 297.5 33.1995C296.9 33.2995 296.6 33.5995 296.5 34.1995C296.4 33.5995 296 33.2995 295.5 33.1995C296.1 33.1995 296.5 32.7995 296.5 32.1995ZM293.6 45.1995C293.5 44.5995 293.1 44.2995 292.6 44.1995C293.2 44.0995 293.5 43.7995 293.6 43.1995C293.7 43.7995 294 44.0995 294.6 44.1995C294 44.2995 293.7 44.5995 293.6 45.1995ZM294.9 40.4995C294.7 39.5995 294.2 39.1995 293.5 39.0995C294.3 38.9995 294.8 38.4995 294.9 37.6995C295 38.4995 295.5 38.9995 296.3 39.0995C295.5 39.1995 295 39.6995 294.9 40.4995ZM296.5 35.7995C298.7 35.4995 300 34.2995 300.3 31.9995C300.6 34.2995 301.9 35.4995 304.1 35.7995C301.8 36.0995 300.6 37.3995 300.3 39.5995C300 37.1995 298.6 36.0995 296.5 35.7995Z" fill="black"/>
<path d="M331.3 53.8997C330.2 52.7997 328.7 55.1998 327.5 57.7998C325.9 61.2998 325 64.9998 324.5 68.7998C323.9 73.7998 323.5 81.0998 325.8 86.5998C326.5 88.2998 327.1 89.9997 328.8 90.8997C328.9 90.9997 329 90.9998 329.1 90.9998C330.1 91.2998 331.2 90.5998 331.5 89.5998C331.8 88.6998 332.1 87.1997 332.3 84.6997C332.7 78.7997 333.5 72.6998 333.5 59.7998C333.5 57.9998 333.3 57.1998 332.8 56.0998C332.5 55.2998 332.1 54.4997 331.3 53.8997Z" fill="black"/>
<path d="M330 42.2997C328.7 47.6997 331.5 49.2997 332.7 49.9997C334 50.7997 338.9 46.0997 338.4 42.2997C338 38.4997 331.2 37.6997 330 42.2997Z" fill="black"/>
<path d="M419.7 74.6996L404.9 77.9996C404.9 77.9996 403.6 78.3996 404.3 76.0996C405.1 73.6996 407.4 64.9996 406.2 60.4996C404.2 53.4996 398.6 51.6996 395.6 53.2996C391.8 55.3996 388.2 58.3996 388.2 58.3996C388.2 58.3996 386.8 59.6996 386.6 57.7996C386.4 55.6996 384.8 50.2996 381.4 48.1996C381.4 48.1996 376.8 44.5996 375.5 47.7996C375.5 47.7996 375.5 47.7996 375.5 47.8996C375.3 48.2996 375.1 48.9996 374.9 49.6996C376 52.1996 378.2 53.8996 381.6 54.7996C376.2 54.5996 372.8 56.9996 371.2 62.1996C371.6 56.6996 369.2 53.1996 363.8 51.7996C366.2 52.0996 368.2 51.7996 369.8 50.8996L369.7 50.7996C369.1 49.9996 368.1 49.0996 366.8 48.3996C361.6 45.5996 351.6 45.2996 343.4 59.5996C334.1 75.7996 345.2 91.3996 353 91.3996C355.2 91.3996 357.5 90.3996 359.4 88.4996C364.4 83.5996 365.8 80.7996 367.3 78.1996C368.1 76.8996 369.3 74.5996 370.4 71.4996C369.2 78.4996 368.2 85.5996 368.5 87.3996C368.9 89.9996 369.4 91.3996 372.3 91.5996C373.9 91.6996 375.6 87.8996 376.3 85.6996C378 80.3996 378.8 76.8996 383.5 71.7996C390.3 64.5996 394.7 63.2996 394.7 63.2996C394.7 63.2996 399 61.6996 398.5 63.5996C398 65.4996 394.9 75.9996 394.6 81.2996C394.4 84.9996 398.2 88.9996 402.2 87.9996C406.2 87.0996 419.5 79.3996 419.5 79.3996C422.6 77.3996 422.2 74.1996 419.7 74.6996ZM361 50.1996C361.1 50.9996 361.6 51.4996 362.4 51.5996C361.6 51.6996 361.1 52.1996 361 52.9996C360.8 52.0996 360.3 51.6996 359.6 51.5996C360.4 51.4996 360.9 50.9996 361 50.1996ZM348 85.5996C344.7 82.6996 345.9 81.4996 346.8 79.1996C346.8 79.1996 347.5 85.6996 356.4 85.5996C356.4 85.5996 351.3 88.4996 348 85.5996ZM361.2 75.5996C360.7 76.2996 359.1 79.4996 356.3 80.6996C354.8 81.3996 353.1 81.3996 352.1 78.5996C350.8 74.9996 350.3 68.3996 352.3 63.4996C353.5 60.5996 355.9 58.2996 358.9 57.3996C360.9 56.7996 363.3 56.6996 365.3 58.6996C367.6 61.2996 364.1 69.7996 361.2 75.5996ZM375.4 60.7996C375.5 61.2996 375.7 61.4996 376.2 61.5996C375.7 61.6996 375.5 61.8996 375.4 62.3996C375.3 61.8996 375 61.6996 374.6 61.5996C375.1 61.4996 375.3 61.2996 375.4 60.7996ZM373.3 77.5996C373 76.0996 372.2 75.2996 370.9 75.1996C372.3 74.9996 373.1 74.1996 373.3 72.7996C373.5 74.1996 374.3 74.9996 375.7 75.1996C374.2 75.3996 373.5 76.1996 373.3 77.5996ZM376.4 71.5996C376.3 70.9996 375.9 70.6996 375.4 70.5996C376 70.4996 376.3 70.1996 376.4 69.5996C376.5 70.1996 376.8 70.4996 377.4 70.5996C376.8 70.6996 376.5 71.0996 376.4 71.5996ZM376.8 67.3996C376.7 66.4996 376.2 66.0996 375.4 65.9996C376.2 65.8996 376.7 65.3996 376.8 64.5996C376.9 65.3996 377.4 65.8996 378.2 65.9996C377.3 66.0996 376.9 66.5996 376.8 67.3996ZM399.3 84.0996C399.3 84.0996 397.1 83.0996 397.2 80.7996C397.2 80.7996 401.2 83.2996 405.7 83.3996C405.8 83.2996 404.2 87.0996 399.3 84.0996Z" fill="black"/>
<path d="M111.6 154.199C109.1 139.399 100.8 132.599 88.7002 131.299C101.8 129.599 109.6 122.199 111.6 108.399C113.6 122.099 121.3 129.599 134.5 131.299C120.7 133.299 113.3 141.099 111.6 154.199Z" fill="#F9CBC3"/>
</svg>
